<svg xmlns="http://www.w3.org/2000/svg" xmlns:xlink="http://www.w3.org/1999/xlink" version="1.1" x="0px" y="0px" viewBox="0 0 32 32" enable-background="new 0 0 32 32" xml:space="preserve"><g xmlns="http://www.w3.org/2000/svg" fill="#017F8B"><g><g><g><rect x="2.242" y="9.049" transform="matrix(0.7071 -0.7071 0.7071 0.7071 -3.9551 9.5486)" width="14.614" height="1"/></g><g><rect x="15.349" y="22.156" transform="matrix(0.7071 -0.7071 0.7071 0.7071 -9.3843 22.656)" width="14.614" height="1"/></g></g><g><g><rect x="9.049" y="15.349" transform="matrix(0.7071 -0.7071 0.7071 0.7071 -13.223 13.3866)" width="1" height="14.614"/></g><g><rect x="22.156" y="2.242" transform="matrix(0.7071 -0.7071 0.7071 0.7071 -0.1164 18.8159)" width="1" height="14.614"/></g></g><g><g><path d="M16,1.414l1.683,1.683L16,4.779l-1.683-1.683L16,1.414 M16,0l-3.097,3.097L16,6.194l3.097-3.097L16,0L16,0z"/></g><g><path d="M16,27.221l1.683,1.683L16,30.586l-1.683-1.683L16,27.221 M16,25.806l-3.097,3.097L16,32l3.097-3.097L16,25.806      L16,25.806z"/></g><g><path d="M3.097,14.317L4.779,16l-1.683,1.683L1.414,16L3.097,14.317 M3.097,12.903L0,16l3.097,3.097L6.194,16L3.097,12.903      L3.097,12.903z"/></g><g><path d="M28.903,14.317L30.586,16l-1.683,1.683L27.221,16L28.903,14.317 M28.903,12.903L25.806,16l3.097,3.097L32,16      L28.903,12.903L28.903,12.903z"/></g></g></g></g></svg>