<svg width="853.2318359375px" height="260.20343017578125px" xmlns="http://www.w3.org/2000/svg" viewBox="-176.61591796875 -55.101715087890625 853.2318359375 260.20343017578125" style="background: rgba(0, 0, 0, 0);" preserveAspectRatio="xMidYMid"><defs><linearGradient id="editing-outline-gradient" x1="0.15797985667433118" x2="0.8420201433256689" y1="-0.4396926207859083" y2="1.4396926207859084"><stop offset="0" stop-color="#ee4208"></stop><stop offset="1" stop-color="#4139ff"></stop></linearGradient><filter id="editing-outline" x="-100%" y="-100%" width="300%" height="300%"><feMorphology in="SourceGraphic" operator="dilate" radius="1" result="outline"></feMorphology><feComposite operator="out" in="outline" in2="SourceAlpha"></feComposite></filter></defs><g filter="url(#editing-outline)"><g transform="translate(-58.555009841918945, 132.97999954223633)"><path d="M14.17 23.40L14.17-91.65L39.78-91.65L39.78-83.33L24.57-83.33L24.57 15.08L39.78 15.08L39.78 23.40L14.17 23.40ZM82.42-64.87L82.42-64.87Q90.74-64.87 97.11-60.84L97.11-60.84L97.11-60.84Q103.48-56.81 106.99-49.40L106.99-49.40L106.99-49.40Q110.50-41.99 110.50-32.24L110.50-32.24L110.50-32.24Q110.50-22.36 106.99-14.88L106.99-14.88L106.99-14.88Q103.48-7.41 97.11-3.25L97.11-3.25L97.11-3.25Q90.74 0.91 82.42 0.91L82.42 0.91L82.42 0.91Q75.01 0.91 69.48-2.34L69.48-2.34L69.48-2.34Q63.96-5.59 61.10-11.57L61.10-11.57L61.10 0L50.57 0L50.57-91.65L61.10-91.65L61.10-52.39L61.10-52.39Q63.96-58.37 69.48-61.62L69.48-61.62L69.48-61.62Q75.01-64.87 82.42-64.87L82.42-64.87ZM80.34-7.80L80.34-7.80Q89.57-7.80 94.64-14.24L94.64-14.24L94.64-14.24Q99.71-20.67 99.71-32.24L99.71-32.24L99.71-32.24Q99.71-43.55 94.64-49.79L94.64-49.79L94.64-49.79Q89.57-56.03 80.34-56.03L80.34-56.03L80.34-56.03Q71.11-56.03 66.11-49.79L66.11-49.79L66.11-49.79Q61.10-43.55 61.10-31.98L61.10-31.98L61.10-31.98Q61.10-20.41 66.11-14.11L66.11-14.11L66.11-14.11Q71.11-7.80 80.34-7.80L80.34-7.80ZM126.23 0L126.23-63.31L136.76-63.31L136.76 0L126.23 0ZM125.19-90.74L137.93-90.74L137.93-78.91L125.19-78.91L125.19-90.74ZM173.29 23.40L147.68 23.40L147.68 15.08L162.89 15.08L162.89-83.33L147.68-83.33L147.68-91.65L173.29-91.65L173.29 23.40ZM267.67-64.87L267.67-64.87Q288.73-64.87 288.73-39.78L288.73-39.78L288.73 0L278.20 0L278.20-39.26L278.20-39.26Q278.20-47.97 275.14-52L275.14-52L275.14-52Q272.09-56.03 265.33-56.03L265.33-56.03L265.33-56.03Q257.40-56.03 252.85-50.70L252.85-50.70L252.85-50.70Q248.30-45.37 248.30-36.14L248.30-36.14L248.30 0L237.77 0L237.77-39.26L237.77-39.26Q237.77-48.10 234.65-52.07L234.65-52.07L234.65-52.07Q231.53-56.03 224.77-56.03L224.77-56.03L224.77-56.03Q216.84-56.03 212.29-50.70L212.29-50.70L212.29-50.70Q207.74-45.37 207.74-36.14L207.74-36.14L207.74 0L197.21 0L197.21-63.31L207.61-63.31L207.61-53.30L207.61-53.30Q210.47-58.89 215.54-61.88L215.54-61.88L215.54-61.88Q220.61-64.87 227.24-64.87L227.24-64.87L227.24-64.87Q241.93-64.87 246.61-52.39L246.61-52.39L246.61-52.39Q249.34-58.24 254.93-61.55L254.93-61.55L254.93-61.55Q260.52-64.87 267.67-64.87L267.67-64.87ZM333.71-64.87L333.71-64.87Q345.80-64.87 351.71-58.70L351.71-58.70L351.71-58.70Q357.63-52.52 357.63-39.91L357.63-39.91L357.63 0L347.36 0L347.36-10.79L347.36-10.79Q344.89-5.20 339.82-2.15L339.82-2.15L339.82-2.15Q334.75 0.91 328.12 0.91L328.12 0.91L328.12 0.91Q322.01 0.91 316.88-1.56L316.88-1.56L316.88-1.56Q311.74-4.03 308.75-8.45L308.75-8.45L308.75-8.45Q305.76-12.87 305.76-18.20L305.76-18.20L305.76-18.20Q305.76-25.35 309.40-29.32L309.40-29.32L309.40-29.32Q313.04-33.28 321.36-35.04L321.36-35.04L321.36-35.04Q329.68-36.79 344.50-36.79L344.50-36.79L347.36-36.79L347.36-41.08L347.36-41.08Q347.36-49.01 344.11-52.59L344.11-52.59L344.11-52.59Q340.86-56.16 333.58-56.16L333.58-56.16L333.58-56.16Q322.66-56.16 311.87-49.40L311.87-49.40L308.36-57.07L308.36-57.07Q313.30-60.58 320.25-62.73L320.25-62.73L320.25-62.73Q327.21-64.87 333.71-64.87L333.71-64.87ZM329.55-7.41L329.55-7.41Q337.35-7.41 342.35-12.68L342.35-12.68L342.35-12.68Q347.36-17.94 347.36-26.26L347.36-26.26L347.36-30.03L345.02-30.03L345.02-30.03Q333.58-30.03 327.60-29.05L327.60-29.05L327.60-29.05Q321.62-28.08 319.08-25.80L319.08-25.80L319.08-25.80Q316.55-23.53 316.55-19.11L316.55-19.11L316.55-19.11Q316.55-14.04 320.25-10.72L320.25-10.72L320.25-10.72Q323.96-7.41 329.55-7.41L329.55-7.41ZM386.36-8.32L427.05-8.32L427.05 0L373.36 0L373.36-7.28L412.88-54.99L374.66-54.99L374.66-63.31L425.62-63.31L425.62-55.64L386.36-8.32ZM442.26 0L442.26-63.31L452.79-63.31L452.79 0L442.26 0ZM441.22-90.74L453.96-90.74L453.96-78.91L441.22-78.91L441.22-90.74ZM504.27-64.87L504.27-64.87Q527.02-64.87 527.02-39.78L527.02-39.78L527.02 0L516.49 0L516.49-39.13L516.49-39.13Q516.49-47.97 513.05-52L513.05-52L513.05-52Q509.60-56.03 502.06-56.03L502.06-56.03L502.06-56.03Q493.35-56.03 488.15-50.70L488.15-50.70L488.15-50.70Q482.95-45.37 482.95-36.27L482.95-36.27L482.95 0L472.42 0L472.42-63.31L482.82-63.31L482.82-52.91L482.82-52.91Q485.94-58.76 491.53-61.82L491.53-61.82L491.53-61.82Q497.12-64.87 504.27-64.87L504.27-64.87ZM592.41-63.31L602.94-63.31L602.94-4.29L602.94-4.29Q602.94 9.88 595.66 17.09L595.66 17.09L595.66 17.09Q588.38 24.31 574.08 24.31L574.08 24.31L574.08 24.31Q557.44 24.31 546.13 15.73L546.13 15.73L549.64 7.93L549.64 7.93Q556.01 12.09 561.60 13.91L561.60 13.91L561.60 13.91Q567.19 15.73 574.08 15.73L574.08 15.73L574.08 15.73Q583.18 15.73 587.86 10.86L587.86 10.86L587.86 10.86Q592.54 5.98 592.54-3.38L592.54-3.38L592.54-14.56L592.54-14.56Q589.81-8.45 584.15-5.20L584.15-5.20L584.15-5.20Q578.50-1.95 570.83-1.95L570.83-1.95L570.83-1.95Q562.51-1.95 556.08-5.85L556.08-5.85L556.08-5.85Q549.64-9.75 546.06-16.90L546.06-16.90L546.06-16.90Q542.49-24.05 542.49-33.41L542.49-33.41L542.49-33.41Q542.49-42.77 546.06-49.92L546.06-49.92L546.06-49.92Q549.64-57.07 556.08-60.97L556.08-60.97L556.08-60.97Q562.51-64.87 570.83-64.87L570.83-64.87L570.83-64.87Q578.37-64.87 583.96-61.62L583.96-61.62L583.96-61.62Q589.55-58.37 592.41-52.39L592.41-52.39L592.41-63.31ZM572.91-10.66L572.91-10.66Q582.01-10.66 587.21-16.71L587.21-16.71L587.21-16.71Q592.41-22.75 592.41-33.41L592.41-33.41L592.41-33.41Q592.41-43.94 587.27-49.98L587.27-49.98L587.27-49.98Q582.14-56.03 572.91-56.03L572.91-56.03L572.91-56.03Q563.68-56.03 558.41-49.98L558.41-49.98L558.41-49.98Q553.15-43.94 553.15-33.41L553.15-33.41L553.15-33.41Q553.15-22.75 558.41-16.71L558.41-16.71L558.41-16.71Q563.68-10.66 572.91-10.66L572.91-10.66Z" fill="url(#editing-outline-gradient)"></path></g></g><style>text {
  font-size: 64px;
  font-family: Arial Black;
  dominant-baseline: central;
  text-anchor: middle;
}</style></svg>